<svg xmlns="http://www.w3.org/2000/svg" width="21" height="21" viewBox="0 0 21 21">
  <metadata><?xpacket begin="﻿" id="W5M0MpCehiHzreSzNTczkc9d"?>
<x:xmpmeta xmlns:x="adobe:ns:meta/" x:xmptk="Adobe XMP Core 5.6-c138 79.159824, 2016/09/14-01:09:01        ">
   <rdf:RDF xmlns:rdf="http://www.w3.org/1999/02/22-rdf-syntax-ns#">
      <rdf:Description rdf:about=""/>
   </rdf:RDF>
</x:xmpmeta>
                                                                                                    
                                                                                                    
                                                                                                    
                                                                                                    
                                                                                                    
                                                                                                    
                                                                                                    
                                                                                                    
                                                                                                    
                                                                                                    
                                                                                                    
                                                                                                    
                                                                                                    
                                                                                                    
                                                                                                    
                                                                                                    
                                                                                                    
                                                                                                    
                                                                                                    
                                                                                                    
                           
<?xpacket end="w"?></metadata>
<defs>
    <style>
      .cls-1 {
        fill: #fd5c08;
        fill-rule: evenodd;
      }
    </style>
  </defs>
  <path id="C" class="cls-1" d="M800.767,1362.2a11.543,11.543,0,0,0,2.009,3.44,9.892,9.892,0,0,0,3.078,2.43,8.393,8.393,0,0,0,3.931.92,10.327,10.327,0,0,0,2.485-.32,10,10,0,0,0,2.4-.93,8.493,8.493,0,0,0,2.009-1.52,5.872,5.872,0,0,0,1.315-2.04l-4.6-2.77a3.665,3.665,0,0,1-.622,1.18,3.611,3.611,0,0,1-.867.79,3.544,3.544,0,0,1-1,.44,4.523,4.523,0,0,1-1.012.13,3.383,3.383,0,0,1-1.748-.45,4.346,4.346,0,0,1-1.3-1.21,5.647,5.647,0,0,1-.809-1.75,7.672,7.672,0,0,1-.275-2.07,8.412,8.412,0,0,1,.231-1.94,5.429,5.429,0,0,1,.737-1.75,4.056,4.056,0,0,1,1.272-1.25,3.3,3.3,0,0,1,1.836-.49,4.768,4.768,0,0,1,1.011.12,3.61,3.61,0,0,1,1.041.41,3.55,3.55,0,0,1,.91.79,3.789,3.789,0,0,1,.679,1.25l4.307-3.09a7.7,7.7,0,0,0-3.035-3.28,9.067,9.067,0,0,0-4.8-1.24,9.36,9.36,0,0,0-4.176.9,10.008,10.008,0,0,0-3.122,2.37,10.157,10.157,0,0,0-1.951,3.29,10.923,10.923,0,0,0-.665,3.73A11.041,11.041,0,0,0,800.767,1362.2ZM797,1355.7h13.488v1.94H797v-1.94Zm0,3.4h13.488v1.94H797v-1.94Z" transform="translate(-797 -1348)"/>
</svg>
